#!OML:ASF F:\VICON\USERDATA\INSTALL\rory3\rory3.ASF
:FULLY-SPECIFIED
:DEGREES
306
root -0.250908 18.0856 27.6356 -3.4513 0.418286 -4.38449
lowerback 10.9751 -0.0397672 2.27483
upperback 0.611546 0.380276 2.60155
thorax -5.52513 0.162422 1.38328
lowerneck -16.5511 -2.81948 -2.13811
upperneck 19.7097 -3.60438 1.13899
head 8.97139 -1.72677 0.291009
rclavicle 6.60959e-015 -1.15295e-014
rhumerus -29.2596 -24.149 -77.1252
rradius 19.4664
rwrist 10.7456
rhand -18.2615 24.3798
rfingers 7.12502
rthumb 8.01793 -5.44807
lclavicle 6.60959e-015 -1.15295e-014
lhumerus -30.3251 -1.98811 85.4109
lradius 28.4489
lwrist 3.08887
lhand -26.0301 25.4527
lfingers 7.12502
lthumb 0.516639 55.4318
rfemur -13.2037 4.48844 30.2633
rtibia 28.4095
rfoot -10.0636 -4.07299
rtoes 9.77801
lfemur -11.0352 -0.347816 -15.6858
ltibia 68.1052
lfoot 2.95454 -11.556
ltoes -7.20904
307
root -0.265902 18.0911 27.8011 -3.51366 -0.0188238 -4.79641
lowerback 10.9909 0.15332 2.66003
upperback 0.733938 0.683618 2.65688
thorax -5.40396 0.303878 1.17656
lowerneck -16.6159 -2.80155 -2.08767
upperneck 19.733 -3.59639 1.16095
head 8.99047 -1.71613 0.290198
rclavicle -1.03617e-014 4.09496e-014
rhumerus -28.9439 -23.1927 -77.7342
rradius 19.9339
rwrist 9.83557
rhand -18.1899 24.3132
rfingers 7.12502
rthumb 8.0871 -5.51202
lclavicle -1.03617e-014 4.09496e-014
lhumerus -30.4147 -2.12353 85.4303
lradius 28.3439
lwrist 3.64079
lhand -26.7025 24.9218
lfingers 7.12502
lthumb -0.132753 54.9015
rfemur -12.5424 4.98998 30.8998
rtibia 28.3768
rfoot -10.3291 -4.27918
rtoes 9.84306
lfemur -12.2512 0.194757 -15.1002
ltibia 68.5638
lfoot 2.05683 -11.4548
ltoes -7.15679
308
root -0.269675 18.0977 27.9768 -3.46645 -0.234795 -4.88437
lowerback 10.7026 0.301692 2.89704
upperback 0.814419 0.888926 2.59074
thorax -5.15362 0.401078 0.942973
lowerneck -16.5817 -2.84617 -2.09157
upperneck 19.7868 -3.66205 1.17639
head 9.00429 -1.74536 0.287936
rclavicle 1.64619e-014 1.61016e-014
rhumerus -28.9714 -21.1649 -78.6234
rradius 21.1993
rwrist 7.62747
rhand -17.79 23.6899
rfingers 7.12502
rthumb 8.47303 -6.12009
lclavicle 1.64619e-014 1.61016e-014
lhumerus -30.6212 -2.44212 85.56
lradius 28.3282
lwrist 4.70421
lhand -27.3498 23.6597
lfingers 7.12502
lthumb -0.757933 53.6381
rfemur -11.922 4.93269 31.0973
rtibia 28.3791
rfoot -10.6658 -4.28492
rtoes 9.48428
lfemur -13.4093 0.429798 -15.0204
ltibia 68.7772
lfoot 1.15363 -11.012
ltoes -7.17901
309
root -0.265056 18.0967 28.1486 -3.4175 -0.158955 -4.79447
lowerback 10.4958 0.34192 3.06661
upperback 0.855329 0.942216 2.43357
thorax -4.98918 0.423808 0.676267
lowerneck -16.2814 -2.84729 -1.97931
upperneck 19.5836 -3.6875 1.14167
head 8.87722 -1.75525 0.259966
rclavicle 1.60394e-014 1.59028e-015
rhumerus -28.8156 -20.2733 -79.149
rradius 21.9186
rwrist 6.43999
rhand -17.4762 23.3664
rfingers 7.12502
rthumb 8.77579 -6.43113
lclavicle 1.60394e-014 1.59028e-015
lhumerus -30.9162 -2.535 85.5482
lradius 28.3759
lwrist 5.47737
lhand -27.3308 22.8599
lfingers 7.12502
lthumb -0.739615 52.8384
rfemur -11.3135 4.4327 31.0145
rtibia 28.386
rfoot -11.122 -4.07355
rtoes 10.2375
lfemur -14.5266 0.333327 -15.2408
ltibia 68.8229
lfoot 0.368037 -10.3055
ltoes -5.13711
